<svg xmlns = "http://www.w3.org/2000/svg" width = "1000" height = "1000">
<g>
<polygon points = "989.909, 241.785 859.534, 244.402 844.732, 293.181 917.832, 335.209 1000.000, 246.501 1000.000, 244.613 "
fill = "none" stroke = "black"/>
</g>
<g>
<polygon points = "104.564, 814.222 104.029, 818.591 148.294, 872.693 167.013, 861.150 224.965, 760.098 153.343, 717.335 "
fill = "none" stroke = "black"/>
</g>
<g>
<polygon points = "337.513, 318.300 358.178, 325.233 467.229, 310.855 485.806, 264.829 483.448, 259.330 433.760, 217.995 419.402, 210.708 297.231, 257.629 305.273, 282.312 "
fill = "none" stroke = "black"/>
</g>
<g>
<polygon points = "967.984, 604.363 933.673, 601.513 874.423, 637.115 898.179, 701.122 913.290, 708.703 968.443, 685.989 "
fill = "none" stroke = "black"/>
</g>
<g>
<polygon points = "807.001, 316.748 792.193, 336.182 825.718, 372.061 914.258, 359.263 917.832, 335.209 844.732, 293.181 "
fill = "none" stroke = "black"/>
</g>
<g>
<polygon points = "966.606, 867.738 893.056, 807.920 816.161, 830.155 814.777, 838.711 876.249, 885.499 898.780, 890.498 "
fill = "none" stroke = "black"/>
</g>
<g>
<polygon points = "307.874, 89.912 297.721, 90.785 310.857, 175.089 399.117, 185.290 400.523, 161.441 "
fill = "none" stroke = "black"/>
</g>
<g>
<polygon points = "608.175, 947.252 608.473, 945.935 560.130, 791.414 508.465, 843.018 "
fill = "none" stroke = "black"/>
</g>
<g>
<polygon points = "271.937, 867.956 167.013, 861.150 148.294, 872.693 116.359, 1000.000 303.873, 1000.000 "
fill = "none" stroke = "black"/>
</g>
<g>
<polygon points = "664.703, 91.668 669.528, 224.347 761.841, 175.997 794.968, 148.065 795.449, 146.973 761.687, 103.483 "
fill = "none" stroke = "black"/>
</g>
<g>
<polygon points = "836.487, 625.957 790.518, 684.754 850.713, 754.654 898.179, 701.122 874.423, 637.115 "
fill = "none" stroke = "black"/>
</g>
<g>
<polygon points = "0.000, 95.242 0.000, 444.334 17.920, 438.823 118.368, 376.024 "
fill = "none" stroke = "black"/>
</g>
<g>
<polygon points = "794.968, 148.065 761.841, 175.997 807.001, 316.748 844.732, 293.181 859.534, 244.402 "
fill = "none" stroke = "black"/>
</g>
<g>
<polygon points = "882.805, 84.419 861.213, 88.955 855.464, 100.475 1000.000, 160.345 1000.000, 107.685 "
fill = "none" stroke = "black"/>
</g>
<g>
<polygon points = "654.671, 877.058 617.938, 781.453 578.238, 757.135 565.225, 765.790 560.130, 791.414 608.473, 945.935 "
fill = "none" stroke = "black"/>
</g>
<g>
<polygon points = "190.487, 230.118 137.400, 373.412 139.088, 374.058 166.533, 382.703 305.273, 282.312 297.231, 257.629 291.979, 249.356 "
fill = "none" stroke = "black"/>
</g>
<g>
<polygon points = "902.056, 985.812 828.275, 960.147 752.076, 985.968 742.486, 1000.000 910.868, 1000.000 "
fill = "none" stroke = "black"/>
</g>
<g>
<polygon points = "400.523, 161.441 399.117, 185.290 419.402, 210.708 433.760, 217.995 451.284, 75.370 "
fill = "none" stroke = "black"/>
</g>
<g>
<polygon points = "461.292, 953.651 563.742, 989.175 466.332, 864.191 443.232, 858.222 "
fill = "none" stroke = "black"/>
</g>
<g>
<polygon points = "836.329, 122.499 795.449, 146.973 794.968, 148.065 859.534, 244.402 989.909, 241.785 "
fill = "none" stroke = "black"/>
</g>
<g>
<polygon points = "503.494, 144.320 491.366, 117.012 454.404, 67.631 451.284, 75.370 433.760, 217.995 483.448, 259.330 "
fill = "none" stroke = "black"/>
</g>
<g>
<polygon points = "322.286, 988.688 421.894, 940.054 413.561, 846.917 397.059, 833.244 382.912, 841.280 "
fill = "none" stroke = "black"/>
</g>
<g>
<polygon points = "627.411, 45.347 596.209, 109.888 597.900, 154.779 646.417, 231.359 657.243, 234.529 669.528, 224.347 664.703, 91.668 "
fill = "none" stroke = "black"/>
</g>
<g>
<polygon points = "756.035, 356.742 759.252, 341.200 684.524, 298.771 697.785, 415.718 734.008, 414.505 735.441, 414.042 738.792, 412.309 "
fill = "none" stroke = "black"/>
</g>
<g>
<polygon points = "695.712, 792.467 701.518, 820.320 796.207, 851.735 814.777, 838.711 816.161, 830.155 814.302, 806.590 741.324, 738.576 727.927, 740.249 "
fill = "none" stroke = "black"/>
</g>
<g>
<polygon points = "167.667, 538.906 139.088, 374.058 137.400, 373.412 118.368, 376.024 17.920, 438.823 "
fill = "none" stroke = "black"/>
</g>
<g>
<polygon points = "257.407, 760.081 306.134, 842.095 382.912, 841.280 397.059, 833.244 402.178, 795.917 329.783, 724.233 "
fill = "none" stroke = "black"/>
</g>
<g>
<polygon points = "460.458, 741.111 402.178, 795.917 397.059, 833.244 413.561, 846.917 443.232, 858.222 466.332, 864.191 508.465, 843.018 560.130, 791.414 565.225, 765.790 "
fill = "none" stroke = "black"/>
</g>
<g>
<polygon points = "767.155, 901.209 796.207, 851.735 701.518, 820.320 677.657, 861.820 "
fill = "none" stroke = "black"/>
</g>
<g>
<polygon points = "899.872, 474.231 945.735, 446.325 914.258, 359.263 825.718, 372.061 828.513, 390.783 887.825, 475.232 "
fill = "none" stroke = "black"/>
</g>
<g>
<polygon points = "563.742, 989.175 461.292, 953.651 435.218, 951.275 418.993, 1000.000 577.730, 1000.000 "
fill = "none" stroke = "black"/>
</g>
<g>
<polygon points = "435.218, 951.275 421.894, 940.054 322.286, 988.688 314.140, 1000.000 418.993, 1000.000 "
fill = "none" stroke = "black"/>
</g>
<g>
<polygon points = "791.559, 533.534 803.419, 517.396 782.196, 452.961 738.792, 412.309 735.441, 414.042 729.262, 524.079 "
fill = "none" stroke = "black"/>
</g>
<g>
<polygon points = "322.286, 988.688 382.912, 841.280 306.134, 842.095 271.937, 867.956 303.873, 1000.000 314.140, 1000.000 "
fill = "none" stroke = "black"/>
</g>
<g>
<polygon points = "735.955, 653.829 668.767, 693.577 727.927, 740.249 741.324, 738.576 777.395, 691.494 "
fill = "none" stroke = "black"/>
</g>
<g>
<polygon points = "190.024, 558.003 180.825, 606.754 234.915, 637.758 333.227, 637.202 371.252, 601.305 217.400, 527.241 "
fill = "none" stroke = "black"/>
</g>
<g>
<polygon points = "968.443, 685.989 913.290, 708.703 950.943, 763.827 1000.000, 743.103 1000.000, 701.121 "
fill = "none" stroke = "black"/>
</g>
<g>
<polygon points = "620.907, 447.056 660.923, 522.908 680.062, 521.367 734.008, 414.505 697.785, 415.718 "
fill = "none" stroke = "black"/>
</g>
<g>
<polygon points = "761.687, 103.483 795.449, 146.973 836.329, 122.499 855.464, 100.475 861.213, 88.955 859.184, 0.000 719.473, 0.000 "
fill = "none" stroke = "black"/>
</g>
<g>
<polygon points = "271.937, 867.956 306.134, 842.095 257.407, 760.081 231.493, 757.010 224.965, 760.098 167.013, 861.150 "
fill = "none" stroke = "black"/>
</g>
<g>
<polygon points = "617.577, 444.050 585.567, 480.189 536.866, 552.952 589.375, 616.792 605.183, 621.285 615.502, 610.362 660.923, 522.908 620.907, 447.056 "
fill = "none" stroke = "black"/>
</g>
<g>
<polygon points = "759.252, 341.200 756.035, 356.742 796.436, 425.262 828.513, 390.783 825.718, 372.061 792.193, 336.182 "
fill = "none" stroke = "black"/>
</g>
<g>
<polygon points = "248.432, 446.093 249.775, 456.437 391.450, 551.764 437.455, 491.444 370.216, 426.288 255.129, 441.151 "
fill = "none" stroke = "black"/>
</g>
<g>
<polygon points = "761.841, 175.997 669.528, 224.347 657.243, 234.529 673.566, 290.780 684.524, 298.771 759.252, 341.200 792.193, 336.182 807.001, 316.748 "
fill = "none" stroke = "black"/>
</g>
<g>
<polygon points = "475.054, 4.417 570.768, 102.725 596.209, 109.888 627.411, 45.347 626.537, 0.000 476.471, 0.000 "
fill = "none" stroke = "black"/>
</g>
<g>
<polygon points = "596.892, 243.745 554.473, 411.090 595.857, 418.046 673.566, 290.780 657.243, 234.529 646.417, 231.359 "
fill = "none" stroke = "black"/>
</g>
<g>
<polygon points = "399.117, 185.290 310.857, 175.089 291.979, 249.356 297.231, 257.629 419.402, 210.708 "
fill = "none" stroke = "black"/>
</g>
<g>
<polygon points = "217.400, 527.241 371.252, 601.305 375.230, 598.792 387.923, 569.859 391.450, 551.764 249.775, 456.437 "
fill = "none" stroke = "black"/>
</g>
<g>
<polygon points = "451.722, 57.821 454.404, 67.631 491.366, 117.012 570.768, 102.725 475.054, 4.417 "
fill = "none" stroke = "black"/>
</g>
<g>
<polygon points = "680.062, 521.367 729.262, 524.079 735.441, 414.042 734.008, 414.505 "
fill = "none" stroke = "black"/>
</g>
<g>
<polygon points = "255.129, 441.151 370.216, 426.288 358.178, 325.233 337.513, 318.300 "
fill = "none" stroke = "black"/>
</g>
<g>
<polygon points = "948.983, 771.159 905.534, 783.005 893.056, 807.920 966.606, 867.738 969.929, 867.217 "
fill = "none" stroke = "black"/>
</g>
<g>
<polygon points = "435.218, 951.275 461.292, 953.651 443.232, 858.222 413.561, 846.917 421.894, 940.054 "
fill = "none" stroke = "black"/>
</g>
<g>
<polygon points = "917.832, 335.209 914.258, 359.263 945.735, 446.325 1000.000, 450.414 1000.000, 246.501 "
fill = "none" stroke = "black"/>
</g>
<g>
<polygon points = "777.395, 691.494 741.324, 738.576 814.302, 806.590 850.656, 754.870 850.713, 754.654 790.518, 684.754 "
fill = "none" stroke = "black"/>
</g>
<g>
<polygon points = "560.679, 623.209 454.400, 683.571 460.458, 741.111 565.225, 765.790 578.238, 757.135 615.669, 669.809 605.183, 621.285 589.375, 616.792 "
fill = "none" stroke = "black"/>
</g>
<g>
<polygon points = "460.458, 741.111 454.400, 683.571 375.230, 598.792 371.252, 601.305 333.227, 637.202 329.783, 724.233 402.178, 795.917 "
fill = "none" stroke = "black"/>
</g>
<g>
<polygon points = "231.493, 757.010 234.915, 637.758 180.825, 606.754 115.319, 643.417 153.343, 717.335 224.965, 760.098 "
fill = "none" stroke = "black"/>
</g>
<g>
<polygon points = "595.857, 418.046 617.577, 444.050 620.907, 447.056 697.785, 415.718 684.524, 298.771 673.566, 290.780 "
fill = "none" stroke = "black"/>
</g>
<g>
<polygon points = "887.825, 475.232 828.513, 390.783 796.436, 425.262 782.196, 452.961 803.419, 517.396 "
fill = "none" stroke = "black"/>
</g>
<g>
<polygon points = "945.735, 446.325 899.872, 474.231 933.673, 601.513 967.984, 604.363 1000.000, 596.179 1000.000, 450.414 "
fill = "none" stroke = "black"/>
</g>
<g>
<polygon points = "64.087, 643.820 115.319, 643.417 180.825, 606.754 190.024, 558.003 167.667, 538.906 17.920, 438.823 0.000, 444.334 0.000, 629.654 "
fill = "none" stroke = "black"/>
</g>
<g>
<polygon points = "595.857, 418.046 554.473, 411.090 506.451, 405.671 449.702, 485.338 516.658, 534.468 585.567, 480.189 617.577, 444.050 "
fill = "none" stroke = "black"/>
</g>
<g>
<polygon points = "855.464, 100.475 836.329, 122.499 989.909, 241.785 1000.000, 244.613 1000.000, 160.345 "
fill = "none" stroke = "black"/>
</g>
<g>
<polygon points = "506.451, 405.671 554.473, 411.090 596.892, 243.745 485.806, 264.829 467.229, 310.855 "
fill = "none" stroke = "black"/>
</g>
<g>
<polygon points = "297.721, 90.785 307.874, 89.912 451.722, 57.821 475.054, 4.417 476.471, 0.000 169.849, 0.000 "
fill = "none" stroke = "black"/>
</g>
<g>
<polygon points = "731.037, 623.854 615.502, 610.362 605.183, 621.285 615.669, 669.809 668.767, 693.577 735.955, 653.829 "
fill = "none" stroke = "black"/>
</g>
<g>
<polygon points = "608.175, 947.252 508.465, 843.018 466.332, 864.191 563.742, 989.175 577.730, 1000.000 601.744, 1000.000 "
fill = "none" stroke = "black"/>
</g>
<g>
<polygon points = "898.780, 890.498 876.249, 885.499 828.275, 960.147 902.056, 985.812 "
fill = "none" stroke = "black"/>
</g>
<g>
<polygon points = "64.087, 643.820 0.000, 629.654 0.000, 795.027 104.029, 818.591 104.564, 814.222 "
fill = "none" stroke = "black"/>
</g>
<g>
<polygon points = "190.024, 558.003 217.400, 527.241 249.775, 456.437 248.432, 446.093 166.533, 382.703 139.088, 374.058 167.667, 538.906 "
fill = "none" stroke = "black"/>
</g>
<g>
<polygon points = "677.657, 861.820 701.518, 820.320 695.712, 792.467 617.938, 781.453 654.671, 877.058 "
fill = "none" stroke = "black"/>
</g>
<g>
<polygon points = "796.436, 425.262 756.035, 356.742 738.792, 412.309 782.196, 452.961 "
fill = "none" stroke = "black"/>
</g>
<g>
<polygon points = "905.534, 783.005 850.656, 754.870 814.302, 806.590 816.161, 830.155 893.056, 807.920 "
fill = "none" stroke = "black"/>
</g>
<g>
<polygon points = "148.294, 872.693 104.029, 818.591 0.000, 795.027 0.000, 1000.000 116.359, 1000.000 "
fill = "none" stroke = "black"/>
</g>
<g>
<polygon points = "967.984, 604.363 968.443, 685.989 1000.000, 701.121 1000.000, 596.179 "
fill = "none" stroke = "black"/>
</g>
<g>
<polygon points = "115.319, 643.417 64.087, 643.820 104.564, 814.222 153.343, 717.335 "
fill = "none" stroke = "black"/>
</g>
<g>
<polygon points = "0.000, 95.242 118.368, 376.024 137.400, 373.412 190.487, 230.118 30.732, 0.000 0.000, 0.000 "
fill = "none" stroke = "black"/>
</g>
<g>
<polygon points = "969.929, 867.217 966.606, 867.738 898.780, 890.498 902.056, 985.812 910.868, 1000.000 1000.000, 1000.000 1000.000, 879.333 "
fill = "none" stroke = "black"/>
</g>
<g>
<polygon points = "905.534, 783.005 948.983, 771.159 950.943, 763.827 913.290, 708.703 898.179, 701.122 850.713, 754.654 850.656, 754.870 "
fill = "none" stroke = "black"/>
</g>
<g>
<polygon points = "668.767, 693.577 615.669, 669.809 578.238, 757.135 617.938, 781.453 695.712, 792.467 727.927, 740.249 "
fill = "none" stroke = "black"/>
</g>
<g>
<polygon points = "596.892, 243.745 646.417, 231.359 597.900, 154.779 503.494, 144.320 483.448, 259.330 485.806, 264.829 "
fill = "none" stroke = "black"/>
</g>
<g>
<polygon points = "799.316, 570.616 731.037, 623.854 735.955, 653.829 777.395, 691.494 790.518, 684.754 836.487, 625.957 "
fill = "none" stroke = "black"/>
</g>
<g>
<polygon points = "752.076, 985.968 767.155, 901.209 677.657, 861.820 654.671, 877.058 608.473, 945.935 608.175, 947.252 601.744, 1000.000 742.486, 1000.000 "
fill = "none" stroke = "black"/>
</g>
<g>
<polygon points = "560.679, 623.209 589.375, 616.792 536.866, 552.952 516.658, 534.468 449.702, 485.338 437.455, 491.444 391.450, 551.764 387.923, 569.859 "
fill = "none" stroke = "black"/>
</g>
<g>
<polygon points = "454.400, 683.571 560.679, 623.209 387.923, 569.859 375.230, 598.792 "
fill = "none" stroke = "black"/>
</g>
<g>
<polygon points = "861.213, 88.955 882.805, 84.419 1000.000, 29.554 1000.000, 0.000 859.184, 0.000 "
fill = "none" stroke = "black"/>
</g>
<g>
<polygon points = "190.487, 230.118 291.979, 249.356 310.857, 175.089 297.721, 90.785 169.849, 0.000 30.732, 0.000 "
fill = "none" stroke = "black"/>
</g>
<g>
<polygon points = "899.872, 474.231 887.825, 475.232 803.419, 517.396 791.559, 533.534 799.316, 570.616 836.487, 625.957 874.423, 637.115 933.673, 601.513 "
fill = "none" stroke = "black"/>
</g>
<g>
<polygon points = "166.533, 382.703 248.432, 446.093 255.129, 441.151 337.513, 318.300 305.273, 282.312 "
fill = "none" stroke = "black"/>
</g>
<g>
<polygon points = "950.943, 763.827 948.983, 771.159 969.929, 867.217 1000.000, 879.333 1000.000, 743.103 "
fill = "none" stroke = "black"/>
</g>
<g>
<polygon points = "752.076, 985.968 828.275, 960.147 876.249, 885.499 814.777, 838.711 796.207, 851.735 767.155, 901.209 "
fill = "none" stroke = "black"/>
</g>
<g>
<polygon points = "231.493, 757.010 257.407, 760.081 329.783, 724.233 333.227, 637.202 234.915, 637.758 "
fill = "none" stroke = "black"/>
</g>
<g>
<polygon points = "307.874, 89.912 400.523, 161.441 451.284, 75.370 454.404, 67.631 451.722, 57.821 "
fill = "none" stroke = "black"/>
</g>
<g>
<polygon points = "370.216, 426.288 437.455, 491.444 449.702, 485.338 506.451, 405.671 467.229, 310.855 358.178, 325.233 "
fill = "none" stroke = "black"/>
</g>
<g>
<polygon points = "799.316, 570.616 791.559, 533.534 729.262, 524.079 680.062, 521.367 660.923, 522.908 615.502, 610.362 731.037, 623.854 "
fill = "none" stroke = "black"/>
</g>
<g>
<polygon points = "882.805, 84.419 1000.000, 107.685 1000.000, 29.554 "
fill = "none" stroke = "black"/>
</g>
<g>
<polygon points = "516.658, 534.468 536.866, 552.952 585.567, 480.189 "
fill = "none" stroke = "black"/>
</g>
<g>
<polygon points = "570.768, 102.725 491.366, 117.012 503.494, 144.320 597.900, 154.779 596.209, 109.888 "
fill = "none" stroke = "black"/>
</g>
<g>
<polygon points = "627.411, 45.347 664.703, 91.668 761.687, 103.483 719.473, 0.000 626.537, 0.000 "
fill = "none" stroke = "black"/>
</g>
</svg>
