<svg xmlns = "http://www.w3.org/2000/svg" width = "1000" height = "1000">
<g>
<polygon points = "539.957, 515.131 550.407, 466.521 545.276, 458.986 499.408, 449.832 470.347, 456.111 477.537, 473.608 "
fill = "lightblue" stroke = "black"/>
</g>
<g>
<polygon points = "532.751, 389.317 531.864, 350.348 502.957, 343.058 501.277, 343.099 475.424, 379.936 452.670, 441.457 470.347, 456.111 499.408, 449.832 "
fill = "lightblue" stroke = "black"/>
</g>
<g>
<polygon points = "217.655, 98.669 179.345, 114.725 201.300, 210.134 256.610, 229.675 282.535, 184.090 262.606, 145.538 "
fill = "lightblue" stroke = "black"/>
</g>
<g>
<polygon points = "262.606, 145.538 282.535, 184.090 363.202, 133.323 364.756, 91.292 340.675, 0.000 334.769, 0.000 "
fill = "lightblue" stroke = "black"/>
</g>
<g>
<polygon points = "514.658, 885.902 536.474, 918.036 671.133, 953.827 678.487, 923.242 647.611, 814.156 565.809, 816.171 "
fill = "lightblue" stroke = "black"/>
</g>
<g>
<polygon points = "132.325, 836.131 184.690, 784.321 191.093, 772.608 71.422, 710.312 0.000, 727.297 0.000, 822.084 "
fill = "lightblue" stroke = "black"/>
</g>
<g>
<polygon points = "526.647, 228.272 546.371, 189.012 517.992, 162.278 510.565, 165.249 445.118, 232.767 462.667, 262.977 "
fill = "lightblue" stroke = "black"/>
</g>
<g>
<polygon points = "476.988, 326.914 462.667, 262.977 445.118, 232.767 412.019, 228.611 411.842, 314.645 441.878, 323.740 "
fill = "lightblue" stroke = "black"/>
</g>
<g>
<polygon points = "949.445, 601.835 945.302, 608.222 940.404, 721.067 1000.000, 743.632 1000.000, 597.448 "
fill = "lightblue" stroke = "black"/>
</g>
<g>
<polygon points = "392.994, 390.525 379.864, 397.267 392.714, 453.711 397.957, 457.932 452.670, 441.457 475.424, 379.936 "
fill = "lightblue" stroke = "black"/>
</g>
<g>
<polygon points = "452.670, 441.457 397.957, 457.932 401.193, 555.227 433.294, 563.328 442.483, 557.005 477.537, 473.608 470.347, 456.111 "
fill = "lightblue" stroke = "black"/>
</g>
<g>
<polygon points = "685.275, 777.841 721.956, 720.309 557.400, 673.004 544.225, 674.912 521.261, 735.959 565.809, 816.171 647.611, 814.156 "
fill = "lightblue" stroke = "black"/>
</g>
<g>
<polygon points = "799.272, 234.524 799.912, 236.742 870.181, 205.901 852.535, 146.621 806.671, 165.535 "
fill = "lightblue" stroke = "black"/>
</g>
<g>
<polygon points = "140.682, 99.930 120.885, 113.553 87.742, 252.686 201.300, 210.134 179.345, 114.725 "
fill = "lightblue" stroke = "black"/>
</g>
<g>
<polygon points = "231.553, 384.298 233.938, 393.397 271.057, 462.462 392.714, 453.711 379.864, 397.267 305.329, 322.917 292.321, 318.282 "
fill = "lightblue" stroke = "black"/>
</g>
<g>
<polygon points = "62.872, 36.070 135.108, 62.075 156.071, 0.000 42.630, 0.000 "
fill = "lightblue" stroke = "black"/>
</g>
<g>
<polygon points = "455.757, 82.883 494.523, 125.069 517.588, 134.228 529.604, 94.394 492.617, 43.665 "
fill = "lightblue" stroke = "black"/>
</g>
<g>
<polygon points = "672.515, 278.111 638.219, 306.857 630.915, 336.138 663.991, 387.563 752.068, 386.521 802.786, 339.666 816.550, 321.572 826.041, 302.845 798.483, 259.888 "
fill = "lightblue" stroke = "black"/>
</g>
<g>
<polygon points = "292.103, 309.437 292.321, 318.282 305.329, 322.917 411.842, 314.645 412.019, 228.611 391.549, 217.510 "
fill = "lightblue" stroke = "black"/>
</g>
<g>
<polygon points = "380.086, 155.412 391.549, 217.510 412.019, 228.611 445.118, 232.767 510.565, 165.249 "
fill = "lightblue" stroke = "black"/>
</g>
<g>
<polygon points = "839.619, 72.073 896.119, 111.981 915.272, 112.474 1000.000, 29.452 1000.000, 0.000 840.919, 0.000 "
fill = "lightblue" stroke = "black"/>
</g>
<g>
<polygon points = "441.878, 323.740 411.842, 314.645 305.329, 322.917 379.864, 397.267 392.994, 390.525 "
fill = "lightblue" stroke = "black"/>
</g>
<g>
<polygon points = "738.764, 899.170 753.239, 859.969 685.275, 777.841 647.611, 814.156 678.487, 923.242 "
fill = "lightblue" stroke = "black"/>
</g>
<g>
<polygon points = "752.814, 96.837 751.378, 101.852 806.671, 165.535 852.535, 146.621 896.119, 111.981 839.619, 72.073 "
fill = "lightblue" stroke = "black"/>
</g>
<g>
<polygon points = "146.333, 525.616 186.797, 561.027 271.617, 486.533 271.057, 462.462 233.938, 393.397 "
fill = "lightblue" stroke = "black"/>
</g>
<g>
<polygon points = "785.868, 913.153 738.764, 899.170 678.487, 923.242 671.133, 953.827 681.208, 1000.000 800.316, 1000.000 "
fill = "lightblue" stroke = "black"/>
</g>
<g>
<polygon points = "926.420, 570.010 910.042, 450.583 892.124, 449.476 861.043, 453.123 810.102, 468.647 784.263, 518.251 781.272, 546.163 "
fill = "lightblue" stroke = "black"/>
</g>
<g>
<polygon points = "532.751, 389.317 499.408, 449.832 545.276, 458.986 "
fill = "lightblue" stroke = "black"/>
</g>
<g>
<polygon points = "869.196, 824.965 849.370, 838.624 785.868, 913.153 800.316, 1000.000 1000.000, 1000.000 1000.000, 954.094 "
fill = "lightblue" stroke = "black"/>
</g>
<g>
<polygon points = "115.030, 921.261 0.000, 951.245 0.000, 1000.000 155.003, 1000.000 "
fill = "lightblue" stroke = "black"/>
</g>
<g>
<polygon points = "610.643, 56.251 642.003, 112.211 693.623, 145.951 751.378, 101.852 752.814, 96.837 724.466, 0.000 631.510, 0.000 "
fill = "lightblue" stroke = "black"/>
</g>
<g>
<polygon points = "517.588, 134.228 494.523, 125.069 436.028, 102.180 364.756, 91.292 363.202, 133.323 380.086, 155.412 510.565, 165.249 517.992, 162.278 "
fill = "lightblue" stroke = "black"/>
</g>
<g>
<polygon points = "752.814, 96.837 839.619, 72.073 840.919, 0.000 724.466, 0.000 "
fill = "lightblue" stroke = "black"/>
</g>
<g>
<polygon points = "529.604, 94.394 517.588, 134.228 517.992, 162.278 546.371, 189.012 557.599, 192.958 642.003, 112.211 610.643, 56.251 "
fill = "lightblue" stroke = "black"/>
</g>
<g>
<polygon points = "915.272, 112.474 940.439, 208.148 1000.000, 291.313 1000.000, 29.452 "
fill = "lightblue" stroke = "black"/>
</g>
<g>
<polygon points = "492.617, 43.665 529.604, 94.394 610.643, 56.251 631.510, 0.000 467.785, 0.000 "
fill = "lightblue" stroke = "black"/>
</g>
<g>
<polygon points = "364.756, 91.292 436.028, 102.180 455.757, 82.883 492.617, 43.665 467.785, 0.000 340.675, 0.000 "
fill = "lightblue" stroke = "black"/>
</g>
<g>
<polygon points = "693.013, 151.519 693.623, 145.951 642.003, 112.211 557.599, 192.958 582.272, 212.571 "
fill = "lightblue" stroke = "black"/>
</g>
<g>
<polygon points = "608.157, 544.391 629.205, 599.064 743.482, 659.441 755.550, 580.939 692.144, 537.774 641.458, 514.219 "
fill = "lightblue" stroke = "black"/>
</g>
<g>
<polygon points = "194.736, 769.938 212.364, 702.059 201.102, 644.423 198.405, 640.486 94.060, 613.559 92.487, 614.334 61.981, 638.011 71.422, 710.312 191.093, 772.608 "
fill = "lightblue" stroke = "black"/>
</g>
<g>
<polygon points = "61.981, 638.011 92.487, 614.334 38.164, 566.912 0.000, 573.388 0.000, 618.102 "
fill = "lightblue" stroke = "black"/>
</g>
<g>
<polygon points = "557.400, 673.004 721.956, 720.309 751.500, 699.302 751.821, 697.502 743.482, 659.441 629.205, 599.064 "
fill = "lightblue" stroke = "black"/>
</g>
<g>
<polygon points = "319.053, 557.388 271.617, 486.533 186.797, 561.027 198.405, 640.486 201.102, 644.423 "
fill = "lightblue" stroke = "black"/>
</g>
<g>
<polygon points = "298.368, 674.179 349.558, 569.757 319.053, 557.388 201.102, 644.423 212.364, 702.059 "
fill = "lightblue" stroke = "black"/>
</g>
<g>
<polygon points = "459.430, 935.566 418.919, 1000.000 467.628, 1000.000 "
fill = "lightblue" stroke = "black"/>
</g>
<g>
<polygon points = "0.000, 125.871 42.225, 108.017 62.872, 36.070 42.630, 0.000 0.000, 0.000 "
fill = "lightblue" stroke = "black"/>
</g>
<g>
<polygon points = "332.523, 813.495 389.948, 696.609 383.971, 690.295 298.368, 674.179 212.364, 702.059 194.736, 769.938 "
fill = "lightblue" stroke = "black"/>
</g>
<g>
<polygon points = "651.249, 427.295 641.458, 514.219 692.144, 537.774 717.423, 472.106 660.414, 409.205 "
fill = "lightblue" stroke = "black"/>
</g>
<g>
<polygon points = "104.557, 515.503 146.333, 525.616 233.938, 393.397 231.553, 384.298 0.000, 342.102 0.000, 352.719 "
fill = "lightblue" stroke = "black"/>
</g>
<g>
<polygon points = "940.439, 208.148 870.181, 205.901 799.912, 236.742 798.483, 259.888 826.041, 302.845 1000.000, 311.012 1000.000, 291.313 "
fill = "lightblue" stroke = "black"/>
</g>
<g>
<polygon points = "231.553, 384.298 292.321, 318.282 292.103, 309.437 256.610, 229.675 201.300, 210.134 87.742, 252.686 0.000, 333.076 0.000, 342.102 "
fill = "lightblue" stroke = "black"/>
</g>
<g>
<polygon points = "476.988, 326.914 441.878, 323.740 392.994, 390.525 475.424, 379.936 501.277, 343.099 "
fill = "lightblue" stroke = "black"/>
</g>
<g>
<polygon points = "717.423, 472.106 692.144, 537.774 755.550, 580.939 781.272, 546.163 784.263, 518.251 "
fill = "lightblue" stroke = "black"/>
</g>
<g>
<polygon points = "135.108, 62.075 140.682, 99.930 179.345, 114.725 217.655, 98.669 298.819, 0.000 156.071, 0.000 "
fill = "lightblue" stroke = "black"/>
</g>
<g>
<polygon points = "562.528, 542.520 523.260, 642.623 544.225, 674.912 557.400, 673.004 629.205, 599.064 608.157, 544.391 "
fill = "lightblue" stroke = "black"/>
</g>
<g>
<polygon points = "630.915, 336.138 638.219, 306.857 582.272, 212.571 557.599, 192.958 546.371, 189.012 526.647, 228.272 502.957, 343.058 531.864, 350.348 "
fill = "lightblue" stroke = "black"/>
</g>
<g>
<polygon points = "671.133, 953.827 536.474, 918.036 540.373, 1000.000 681.208, 1000.000 "
fill = "lightblue" stroke = "black"/>
</g>
<g>
<polygon points = "816.550, 321.572 802.786, 339.666 861.043, 453.123 892.124, 449.476 "
fill = "lightblue" stroke = "black"/>
</g>
<g>
<polygon points = "660.414, 409.205 717.423, 472.106 784.263, 518.251 810.102, 468.647 752.068, 386.521 663.991, 387.563 "
fill = "lightblue" stroke = "black"/>
</g>
<g>
<polygon points = "826.041, 302.845 816.550, 321.572 892.124, 449.476 910.042, 450.583 951.770, 411.892 1000.000, 354.394 1000.000, 311.012 "
fill = "lightblue" stroke = "black"/>
</g>
<g>
<polygon points = "436.028, 102.180 494.523, 125.069 455.757, 82.883 "
fill = "lightblue" stroke = "black"/>
</g>
<g>
<polygon points = "940.439, 208.148 915.272, 112.474 896.119, 111.981 852.535, 146.621 870.181, 205.901 "
fill = "lightblue" stroke = "black"/>
</g>
<g>
<polygon points = "319.053, 557.388 349.558, 569.757 368.599, 570.668 401.193, 555.227 397.957, 457.932 392.714, 453.711 271.057, 462.462 271.617, 486.533 "
fill = "lightblue" stroke = "black"/>
</g>
<g>
<polygon points = "802.786, 339.666 752.068, 386.521 810.102, 468.647 861.043, 453.123 "
fill = "lightblue" stroke = "black"/>
</g>
<g>
<polygon points = "536.474, 918.036 514.658, 885.902 471.046, 889.835 459.345, 910.499 459.430, 935.566 467.628, 1000.000 540.373, 1000.000 "
fill = "lightblue" stroke = "black"/>
</g>
<g>
<polygon points = "849.370, 838.624 753.239, 859.969 738.764, 899.170 785.868, 913.153 "
fill = "lightblue" stroke = "black"/>
</g>
<g>
<polygon points = "693.623, 145.951 693.013, 151.519 698.041, 171.974 799.272, 234.524 806.671, 165.535 751.378, 101.852 "
fill = "lightblue" stroke = "black"/>
</g>
<g>
<polygon points = "191.066, 797.565 186.603, 788.728 222.177, 1000.000 261.291, 1000.000 "
fill = "lightblue" stroke = "black"/>
</g>
<g>
<polygon points = "951.770, 411.892 1000.000, 518.994 1000.000, 354.394 "
fill = "lightblue" stroke = "black"/>
</g>
<g>
<polygon points = "459.430, 935.566 459.345, 910.499 325.870, 1000.000 418.919, 1000.000 "
fill = "lightblue" stroke = "black"/>
</g>
<g>
<polygon points = "115.030, 921.261 132.325, 836.131 0.000, 822.084 0.000, 951.245 "
fill = "lightblue" stroke = "black"/>
</g>
<g>
<polygon points = "135.108, 62.075 62.872, 36.070 42.225, 108.017 120.885, 113.553 140.682, 99.930 "
fill = "lightblue" stroke = "black"/>
</g>
<g>
<polygon points = "940.404, 721.067 860.811, 795.742 869.196, 824.965 1000.000, 954.094 1000.000, 743.632 "
fill = "lightblue" stroke = "black"/>
</g>
<g>
<polygon points = "42.225, 108.017 0.000, 125.871 0.000, 333.076 87.742, 252.686 120.885, 113.553 "
fill = "lightblue" stroke = "black"/>
</g>
<g>
<polygon points = "470.649, 741.578 405.439, 838.345 471.046, 889.835 514.658, 885.902 565.809, 816.171 521.261, 735.959 "
fill = "lightblue" stroke = "black"/>
</g>
<g>
<polygon points = "951.770, 411.892 910.042, 450.583 926.420, 570.010 949.445, 601.835 1000.000, 597.448 1000.000, 518.994 "
fill = "lightblue" stroke = "black"/>
</g>
<g>
<polygon points = "38.164, 566.912 95.901, 534.083 104.557, 515.503 0.000, 352.719 0.000, 573.388 "
fill = "lightblue" stroke = "black"/>
</g>
<g>
<polygon points = "401.563, 696.816 389.948, 696.609 332.523, 813.495 347.195, 829.255 405.439, 838.345 470.649, 741.578 "
fill = "lightblue" stroke = "black"/>
</g>
<g>
<polygon points = "61.981, 638.011 0.000, 618.102 0.000, 727.297 71.422, 710.312 "
fill = "lightblue" stroke = "black"/>
</g>
<g>
<polygon points = "926.420, 570.010 781.272, 546.163 755.550, 580.939 743.482, 659.441 751.821, 697.502 945.302, 608.222 949.445, 601.835 "
fill = "lightblue" stroke = "black"/>
</g>
<g>
<polygon points = "104.557, 515.503 95.901, 534.083 94.060, 613.559 198.405, 640.486 186.797, 561.027 146.333, 525.616 "
fill = "lightblue" stroke = "black"/>
</g>
<g>
<polygon points = "698.041, 171.974 672.515, 278.111 798.483, 259.888 799.912, 236.742 799.272, 234.524 "
fill = "lightblue" stroke = "black"/>
</g>
<g>
<polygon points = "523.260, 642.623 472.443, 621.942 401.563, 696.816 470.649, 741.578 521.261, 735.959 544.225, 674.912 "
fill = "lightblue" stroke = "black"/>
</g>
<g>
<polygon points = "95.901, 534.083 38.164, 566.912 92.487, 614.334 94.060, 613.559 "
fill = "lightblue" stroke = "black"/>
</g>
<g>
<polygon points = "472.443, 621.942 433.294, 563.328 401.193, 555.227 368.599, 570.668 383.971, 690.295 389.948, 696.609 401.563, 696.816 "
fill = "lightblue" stroke = "black"/>
</g>
<g>
<polygon points = "186.603, 788.728 184.690, 784.321 132.325, 836.131 115.030, 921.261 155.003, 1000.000 222.177, 1000.000 "
fill = "lightblue" stroke = "black"/>
</g>
<g>
<polygon points = "292.103, 309.437 391.549, 217.510 380.086, 155.412 363.202, 133.323 282.535, 184.090 256.610, 229.675 "
fill = "lightblue" stroke = "black"/>
</g>
<g>
<polygon points = "849.370, 838.624 869.196, 824.965 860.811, 795.742 751.500, 699.302 721.956, 720.309 685.275, 777.841 753.239, 859.969 "
fill = "lightblue" stroke = "black"/>
</g>
<g>
<polygon points = "751.821, 697.502 751.500, 699.302 860.811, 795.742 940.404, 721.067 945.302, 608.222 "
fill = "lightblue" stroke = "black"/>
</g>
<g>
<polygon points = "472.443, 621.942 523.260, 642.623 562.528, 542.520 541.704, 523.589 442.483, 557.005 433.294, 563.328 "
fill = "lightblue" stroke = "black"/>
</g>
<g>
<polygon points = "698.041, 171.974 693.013, 151.519 582.272, 212.571 638.219, 306.857 672.515, 278.111 "
fill = "lightblue" stroke = "black"/>
</g>
<g>
<polygon points = "526.647, 228.272 462.667, 262.977 476.988, 326.914 501.277, 343.099 502.957, 343.058 "
fill = "lightblue" stroke = "black"/>
</g>
<g>
<polygon points = "368.599, 570.668 349.558, 569.757 298.368, 674.179 383.971, 690.295 "
fill = "lightblue" stroke = "black"/>
</g>
<g>
<polygon points = "442.483, 557.005 541.704, 523.589 539.957, 515.131 477.537, 473.608 "
fill = "lightblue" stroke = "black"/>
</g>
<g>
<polygon points = "541.704, 523.589 562.528, 542.520 608.157, 544.391 641.458, 514.219 651.249, 427.295 550.407, 466.521 539.957, 515.131 "
fill = "lightblue" stroke = "black"/>
</g>
<g>
<polygon points = "312.712, 976.909 347.195, 829.255 332.523, 813.495 194.736, 769.938 191.093, 772.608 184.690, 784.321 186.603, 788.728 191.066, 797.565 "
fill = "lightblue" stroke = "black"/>
</g>
<g>
<polygon points = "217.655, 98.669 262.606, 145.538 334.769, 0.000 298.819, 0.000 "
fill = "lightblue" stroke = "black"/>
</g>
<g>
<polygon points = "459.345, 910.499 471.046, 889.835 405.439, 838.345 347.195, 829.255 312.712, 976.909 311.332, 1000.000 325.870, 1000.000 "
fill = "lightblue" stroke = "black"/>
</g>
<g>
<polygon points = "312.712, 976.909 191.066, 797.565 261.291, 1000.000 311.332, 1000.000 "
fill = "lightblue" stroke = "black"/>
</g>
<g>
<polygon points = "651.249, 427.295 660.414, 409.205 663.991, 387.563 630.915, 336.138 531.864, 350.348 532.751, 389.317 545.276, 458.986 550.407, 466.521 "
fill = "lightblue" stroke = "black"/>
</g>
</svg>
