<svg xmlns = "http://www.w3.org/2000/svg" width = "1000" height = "1000">
<g>
<polygon points = "223.898, 778.641 235.781, 780.265 249.459, 773.327 268.847, 672.062 264.065, 630.859 236.919, 614.866 163.901, 735.006 "
fill = "lightblue" stroke = "black"/>
</g>
<g>
<polygon points = "472.690, 473.449 460.586, 451.604 336.721, 462.772 323.005, 495.196 329.907, 505.636 368.043, 541.479 481.740, 511.006 "
fill = "lightblue" stroke = "black"/>
</g>
<g>
<polygon points = "902.310, 879.543 955.219, 750.200 872.072, 738.146 844.849, 789.236 848.689, 838.723 886.733, 881.055 "
fill = "lightblue" stroke = "black"/>
</g>
<g>
<polygon points = "734.534, 851.526 764.319, 929.783 807.961, 942.222 886.733, 881.055 848.689, 838.723 "
fill = "lightblue" stroke = "black"/>
</g>
<g>
<polygon points = "72.131, 666.496 77.048, 661.626 66.783, 531.378 0.000, 536.532 0.000, 678.751 "
fill = "lightblue" stroke = "black"/>
</g>
<g>
<polygon points = "227.029, 606.824 213.288, 606.941 77.048, 661.626 72.131, 666.496 139.484, 727.021 163.901, 735.006 236.919, 614.866 "
fill = "lightblue" stroke = "black"/>
</g>
<g>
<polygon points = "427.611, 899.073 449.200, 837.901 414.065, 766.438 396.765, 771.091 342.093, 806.722 351.775, 885.635 "
fill = "lightblue" stroke = "black"/>
</g>
<g>
<polygon points = "631.019, 156.619 625.025, 202.154 704.678, 201.932 749.002, 181.942 779.250, 131.053 767.845, 91.709 "
fill = "lightblue" stroke = "black"/>
</g>
<g>
<polygon points = "314.349, 311.001 311.467, 310.948 194.758, 360.486 185.010, 366.830 186.456, 467.694 306.836, 367.595 318.373, 332.287 "
fill = "lightblue" stroke = "black"/>
</g>
<g>
<polygon points = "57.160, 74.324 0.000, 59.369 0.000, 170.842 98.171, 235.695 99.844, 231.407 "
fill = "lightblue" stroke = "black"/>
</g>
<g>
<polygon points = "452.721, 612.467 486.667, 583.788 501.996, 546.150 481.740, 511.006 368.043, 541.479 361.145, 599.885 "
fill = "lightblue" stroke = "black"/>
</g>
<g>
<polygon points = "271.005, 629.243 361.145, 599.885 368.043, 541.479 329.907, 505.636 224.603, 598.813 227.029, 606.824 236.919, 614.866 264.065, 630.859 "
fill = "lightblue" stroke = "black"/>
</g>
<g>
<polygon points = "56.730, 894.356 123.053, 814.538 7.378, 782.010 0.000, 782.041 0.000, 919.170 "
fill = "lightblue" stroke = "black"/>
</g>
<g>
<polygon points = "456.210, 437.531 318.373, 332.287 306.836, 367.595 336.721, 462.772 460.586, 451.604 "
fill = "lightblue" stroke = "black"/>
</g>
<g>
<polygon points = "463.421, 839.246 511.459, 937.977 550.546, 908.489 571.463, 846.900 526.543, 770.506 "
fill = "lightblue" stroke = "black"/>
</g>
<g>
<polygon points = "905.651, 645.464 905.820, 639.205 822.239, 543.482 786.850, 557.054 766.013, 651.745 780.447, 662.755 "
fill = "lightblue" stroke = "black"/>
</g>
<g>
<polygon points = "957.391, 749.118 955.219, 750.200 902.310, 879.543 913.384, 891.375 1000.000, 880.999 1000.000, 744.525 "
fill = "lightblue" stroke = "black"/>
</g>
<g>
<polygon points = "577.548, 370.587 549.072, 519.255 582.683, 505.371 642.986, 441.369 647.113, 412.629 611.185, 322.359 "
fill = "lightblue" stroke = "black"/>
</g>
<g>
<polygon points = "948.792, 594.126 905.820, 639.205 905.651, 645.464 957.391, 749.118 1000.000, 744.525 1000.000, 627.998 "
fill = "lightblue" stroke = "black"/>
</g>
<g>
<polygon points = "306.836, 367.595 186.456, 467.694 184.290, 472.724 323.005, 495.196 336.721, 462.772 "
fill = "lightblue" stroke = "black"/>
</g>
<g>
<polygon points = "326.348, 77.195 152.079, 30.895 151.390, 31.982 263.686, 164.554 286.583, 156.298 326.738, 80.910 "
fill = "lightblue" stroke = "black"/>
</g>
<g>
<polygon points = "77.733, 525.465 66.783, 531.378 77.048, 661.626 213.288, 606.941 "
fill = "lightblue" stroke = "black"/>
</g>
<g>
<polygon points = "628.186, 102.946 537.911, 117.360 528.458, 201.703 545.160, 219.898 564.327, 224.909 625.025, 202.154 631.019, 156.619 "
fill = "lightblue" stroke = "black"/>
</g>
<g>
<polygon points = "880.739, 47.000 906.712, 105.783 1000.000, 78.562 1000.000, 0.000 905.534, 0.000 "
fill = "lightblue" stroke = "black"/>
</g>
<g>
<polygon points = "745.075, 534.678 744.138, 457.164 642.986, 441.369 582.683, 505.371 583.085, 505.527 "
fill = "lightblue" stroke = "black"/>
</g>
<g>
<polygon points = "658.251, 795.025 697.787, 782.482 800.621, 685.733 780.447, 662.755 766.013, 651.745 705.254, 660.291 653.804, 787.576 "
fill = "lightblue" stroke = "black"/>
</g>
<g>
<polygon points = "653.804, 787.576 705.254, 660.291 646.736, 659.409 630.257, 664.438 553.854, 704.802 "
fill = "lightblue" stroke = "black"/>
</g>
<g>
<polygon points = "913.384, 891.375 910.770, 1000.000 1000.000, 1000.000 1000.000, 880.999 "
fill = "lightblue" stroke = "black"/>
</g>
<g>
<polygon points = "645.283, 950.660 550.546, 908.489 511.459, 937.977 496.656, 1000.000 639.950, 1000.000 "
fill = "lightblue" stroke = "black"/>
</g>
<g>
<polygon points = "767.314, 89.274 767.845, 91.709 779.250, 131.053 858.000, 158.634 878.918, 158.424 906.712, 105.783 880.739, 47.000 "
fill = "lightblue" stroke = "black"/>
</g>
<g>
<polygon points = "631.371, 99.349 731.893, 6.059 731.751, 0.000 536.704, 0.000 "
fill = "lightblue" stroke = "black"/>
</g>
<g>
<polygon points = "695.743, 274.042 696.612, 274.680 886.895, 259.829 749.002, 181.942 704.678, 201.932 "
fill = "lightblue" stroke = "black"/>
</g>
<g>
<polygon points = "918.644, 476.809 926.170, 371.558 896.249, 378.044 818.984, 423.635 818.705, 423.854 851.457, 519.133 911.401, 487.670 "
fill = "lightblue" stroke = "black"/>
</g>
<g>
<polygon points = "83.414, 308.285 92.014, 278.443 98.171, 235.695 0.000, 170.842 0.000, 311.499 "
fill = "lightblue" stroke = "black"/>
</g>
<g>
<polygon points = "450.037, 68.468 481.750, 176.587 482.222, 176.887 528.458, 201.703 537.911, 117.360 462.310, 0.000 443.996, 0.000 "
fill = "lightblue" stroke = "black"/>
</g>
<g>
<polygon points = "922.848, 269.701 908.561, 268.603 838.516, 326.104 896.249, 378.044 926.170, 371.558 1000.000, 301.089 1000.000, 292.772 "
fill = "lightblue" stroke = "black"/>
</g>
<g>
<polygon points = "333.216, 934.056 250.182, 835.788 239.835, 934.483 258.371, 1000.000 329.072, 1000.000 "
fill = "lightblue" stroke = "black"/>
</g>
<g>
<polygon points = "118.313, 68.747 169.650, 166.507 228.089, 188.616 263.686, 164.554 151.390, 31.982 "
fill = "lightblue" stroke = "black"/>
</g>
<g>
<polygon points = "906.712, 105.783 878.918, 158.424 1000.000, 209.429 1000.000, 78.562 "
fill = "lightblue" stroke = "black"/>
</g>
<g>
<polygon points = "194.184, 270.552 92.014, 278.443 83.414, 308.285 101.486, 375.985 185.010, 366.830 194.758, 360.486 "
fill = "lightblue" stroke = "black"/>
</g>
<g>
<polygon points = "0.000, 59.369 57.160, 74.324 118.313, 68.747 151.390, 31.982 152.079, 30.895 159.644, 0.000 0.000, 0.000 "
fill = "lightblue" stroke = "black"/>
</g>
<g>
<polygon points = "173.801, 481.420 224.603, 598.813 329.907, 505.636 323.005, 495.196 184.290, 472.724 "
fill = "lightblue" stroke = "black"/>
</g>
<g>
<polygon points = "427.653, 703.807 421.148, 744.950 539.438, 697.746 486.667, 583.788 452.721, 612.467 "
fill = "lightblue" stroke = "black"/>
</g>
<g>
<polygon points = "807.961, 942.222 764.319, 929.783 646.447, 950.318 645.283, 950.660 639.950, 1000.000 806.281, 1000.000 "
fill = "lightblue" stroke = "black"/>
</g>
<g>
<polygon points = "232.182, 202.849 228.089, 188.616 169.650, 166.507 99.844, 231.407 98.171, 235.695 92.014, 278.443 194.184, 270.552 "
fill = "lightblue" stroke = "black"/>
</g>
<g>
<polygon points = "878.918, 158.424 858.000, 158.634 922.848, 269.701 1000.000, 292.772 1000.000, 209.429 "
fill = "lightblue" stroke = "black"/>
</g>
<g>
<polygon points = "736.942, 333.320 838.516, 326.104 908.561, 268.603 886.895, 259.829 696.612, 274.680 "
fill = "lightblue" stroke = "black"/>
</g>
<g>
<polygon points = "355.849, 247.058 403.078, 202.903 358.068, 104.763 326.738, 80.910 286.583, 156.298 "
fill = "lightblue" stroke = "black"/>
</g>
<g>
<polygon points = "913.384, 891.375 902.310, 879.543 886.733, 881.055 807.961, 942.222 806.281, 1000.000 910.770, 1000.000 "
fill = "lightblue" stroke = "black"/>
</g>
<g>
<polygon points = "77.733, 525.465 109.313, 465.699 66.101, 422.535 0.000, 421.767 0.000, 536.532 66.783, 531.378 "
fill = "lightblue" stroke = "black"/>
</g>
<g>
<polygon points = "630.257, 664.438 646.736, 659.409 651.377, 637.282 583.085, 505.527 582.683, 505.371 549.072, 519.255 502.328, 546.002 "
fill = "lightblue" stroke = "black"/>
</g>
<g>
<polygon points = "511.459, 937.977 463.421, 839.246 449.200, 837.901 427.611, 899.073 428.141, 1000.000 496.656, 1000.000 "
fill = "lightblue" stroke = "black"/>
</g>
<g>
<polygon points = "427.653, 703.807 452.721, 612.467 361.145, 599.885 271.005, 629.243 "
fill = "lightblue" stroke = "black"/>
</g>
<g>
<polygon points = "539.379, 230.935 456.726, 347.823 456.210, 437.531 460.586, 451.604 472.690, 473.449 517.223, 404.161 "
fill = "lightblue" stroke = "black"/>
</g>
<g>
<polygon points = "718.237, 356.474 736.942, 333.320 696.612, 274.680 695.743, 274.042 611.317, 305.526 611.185, 322.359 647.113, 412.629 "
fill = "lightblue" stroke = "black"/>
</g>
<g>
<polygon points = "502.328, 546.002 549.072, 519.255 577.548, 370.587 517.223, 404.161 472.690, 473.449 481.740, 511.006 501.996, 546.150 "
fill = "lightblue" stroke = "black"/>
</g>
<g>
<polygon points = "250.182, 835.788 333.216, 934.056 351.775, 885.635 342.093, 806.722 249.459, 773.327 235.781, 780.265 "
fill = "lightblue" stroke = "black"/>
</g>
<g>
<polygon points = "800.621, 685.733 697.787, 782.482 844.849, 789.236 872.072, 738.146 "
fill = "lightblue" stroke = "black"/>
</g>
<g>
<polygon points = "7.378, 782.010 139.484, 727.021 72.131, 666.496 0.000, 678.751 0.000, 782.041 "
fill = "lightblue" stroke = "black"/>
</g>
<g>
<polygon points = "152.079, 30.895 326.348, 77.195 344.445, 0.000 159.644, 0.000 "
fill = "lightblue" stroke = "black"/>
</g>
<g>
<polygon points = "539.438, 697.746 546.187, 706.098 553.854, 704.802 630.257, 664.438 502.328, 546.002 501.996, 546.150 486.667, 583.788 "
fill = "lightblue" stroke = "black"/>
</g>
<g>
<polygon points = "546.187, 706.098 526.543, 770.506 571.463, 846.900 655.076, 806.965 658.251, 795.025 653.804, 787.576 553.854, 704.802 "
fill = "lightblue" stroke = "black"/>
</g>
<g>
<polygon points = "731.893, 6.059 631.371, 99.349 628.186, 102.946 631.019, 156.619 767.845, 91.709 767.314, 89.274 "
fill = "lightblue" stroke = "black"/>
</g>
<g>
<polygon points = "232.182, 202.849 194.184, 270.552 194.758, 360.486 311.467, 310.948 "
fill = "lightblue" stroke = "black"/>
</g>
<g>
<polygon points = "651.377, 637.282 748.598, 537.733 745.075, 534.678 583.085, 505.527 "
fill = "lightblue" stroke = "black"/>
</g>
<g>
<polygon points = "646.447, 950.318 665.084, 814.030 655.076, 806.965 571.463, 846.900 550.546, 908.489 645.283, 950.660 "
fill = "lightblue" stroke = "black"/>
</g>
<g>
<polygon points = "911.401, 487.670 851.457, 519.133 822.239, 543.482 905.820, 639.205 948.792, 594.126 "
fill = "lightblue" stroke = "black"/>
</g>
<g>
<polygon points = "101.486, 375.985 66.101, 422.535 109.313, 465.699 173.801, 481.420 184.290, 472.724 186.456, 467.694 185.010, 366.830 "
fill = "lightblue" stroke = "black"/>
</g>
<g>
<polygon points = "427.611, 899.073 351.775, 885.635 333.216, 934.056 329.072, 1000.000 428.141, 1000.000 "
fill = "lightblue" stroke = "black"/>
</g>
<g>
<polygon points = "858.000, 158.634 779.250, 131.053 749.002, 181.942 886.895, 259.829 908.561, 268.603 922.848, 269.701 "
fill = "lightblue" stroke = "black"/>
</g>
<g>
<polygon points = "185.606, 912.185 239.835, 934.483 250.182, 835.788 235.781, 780.265 223.898, 778.641 154.850, 808.374 "
fill = "lightblue" stroke = "black"/>
</g>
<g>
<polygon points = "611.317, 305.526 695.743, 274.042 704.678, 201.932 625.025, 202.154 564.327, 224.909 "
fill = "lightblue" stroke = "black"/>
</g>
<g>
<polygon points = "116.029, 941.670 56.730, 894.356 0.000, 919.170 0.000, 1000.000 110.848, 1000.000 "
fill = "lightblue" stroke = "black"/>
</g>
<g>
<polygon points = "905.651, 645.464 780.447, 662.755 800.621, 685.733 872.072, 738.146 955.219, 750.200 957.391, 749.118 "
fill = "lightblue" stroke = "black"/>
</g>
<g>
<polygon points = "731.893, 6.059 767.314, 89.274 880.739, 47.000 905.534, 0.000 731.751, 0.000 "
fill = "lightblue" stroke = "black"/>
</g>
<g>
<polygon points = "697.787, 782.482 658.251, 795.025 655.076, 806.965 665.084, 814.030 734.534, 851.526 848.689, 838.723 844.849, 789.236 "
fill = "lightblue" stroke = "black"/>
</g>
<g>
<polygon points = "416.918, 321.263 456.726, 347.823 539.379, 230.935 545.160, 219.898 528.458, 201.703 482.222, 176.887 "
fill = "lightblue" stroke = "black"/>
</g>
<g>
<polygon points = "101.486, 375.985 83.414, 308.285 0.000, 311.499 0.000, 421.767 66.101, 422.535 "
fill = "lightblue" stroke = "black"/>
</g>
<g>
<polygon points = "456.726, 347.823 416.918, 321.263 336.826, 290.023 314.349, 311.001 318.373, 332.287 456.210, 437.531 "
fill = "lightblue" stroke = "black"/>
</g>
<g>
<polygon points = "851.457, 519.133 818.705, 423.854 744.138, 457.164 745.075, 534.678 748.598, 537.733 786.850, 557.054 822.239, 543.482 "
fill = "lightblue" stroke = "black"/>
</g>
<g>
<polygon points = "239.835, 934.483 185.606, 912.185 116.029, 941.670 110.848, 1000.000 258.371, 1000.000 "
fill = "lightblue" stroke = "black"/>
</g>
<g>
<polygon points = "358.068, 104.763 403.078, 202.903 481.750, 176.587 450.037, 68.468 "
fill = "lightblue" stroke = "black"/>
</g>
<g>
<polygon points = "396.765, 771.091 414.065, 766.438 421.148, 744.950 427.653, 703.807 271.005, 629.243 264.065, 630.859 268.847, 672.062 "
fill = "lightblue" stroke = "black"/>
</g>
<g>
<polygon points = "539.379, 230.935 517.223, 404.161 577.548, 370.587 611.185, 322.359 611.317, 305.526 564.327, 224.909 545.160, 219.898 "
fill = "lightblue" stroke = "black"/>
</g>
<g>
<polygon points = "342.093, 806.722 396.765, 771.091 268.847, 672.062 249.459, 773.327 "
fill = "lightblue" stroke = "black"/>
</g>
<g>
<polygon points = "336.826, 290.023 416.918, 321.263 482.222, 176.887 481.750, 176.587 403.078, 202.903 355.849, 247.058 "
fill = "lightblue" stroke = "black"/>
</g>
<g>
<polygon points = "7.378, 782.010 123.053, 814.538 154.850, 808.374 223.898, 778.641 163.901, 735.006 139.484, 727.021 "
fill = "lightblue" stroke = "black"/>
</g>
<g>
<polygon points = "224.603, 598.813 173.801, 481.420 109.313, 465.699 77.733, 525.465 213.288, 606.941 227.029, 606.824 "
fill = "lightblue" stroke = "black"/>
</g>
<g>
<polygon points = "926.170, 371.558 918.644, 476.809 1000.000, 457.926 1000.000, 301.089 "
fill = "lightblue" stroke = "black"/>
</g>
<g>
<polygon points = "537.911, 117.360 628.186, 102.946 631.371, 99.349 536.704, 0.000 462.310, 0.000 "
fill = "lightblue" stroke = "black"/>
</g>
<g>
<polygon points = "818.705, 423.854 818.984, 423.635 718.237, 356.474 647.113, 412.629 642.986, 441.369 744.138, 457.164 "
fill = "lightblue" stroke = "black"/>
</g>
<g>
<polygon points = "546.187, 706.098 539.438, 697.746 421.148, 744.950 414.065, 766.438 449.200, 837.901 463.421, 839.246 526.543, 770.506 "
fill = "lightblue" stroke = "black"/>
</g>
<g>
<polygon points = "185.606, 912.185 154.850, 808.374 123.053, 814.538 56.730, 894.356 116.029, 941.670 "
fill = "lightblue" stroke = "black"/>
</g>
<g>
<polygon points = "918.644, 476.809 911.401, 487.670 948.792, 594.126 1000.000, 627.998 1000.000, 457.926 "
fill = "lightblue" stroke = "black"/>
</g>
<g>
<polygon points = "336.826, 290.023 355.849, 247.058 286.583, 156.298 263.686, 164.554 228.089, 188.616 232.182, 202.849 311.467, 310.948 314.349, 311.001 "
fill = "lightblue" stroke = "black"/>
</g>
<g>
<polygon points = "665.084, 814.030 646.447, 950.318 764.319, 929.783 734.534, 851.526 "
fill = "lightblue" stroke = "black"/>
</g>
<g>
<polygon points = "748.598, 537.733 651.377, 637.282 646.736, 659.409 705.254, 660.291 766.013, 651.745 786.850, 557.054 "
fill = "lightblue" stroke = "black"/>
</g>
<g>
<polygon points = "838.516, 326.104 736.942, 333.320 718.237, 356.474 818.984, 423.635 896.249, 378.044 "
fill = "lightblue" stroke = "black"/>
</g>
<g>
<polygon points = "57.160, 74.324 99.844, 231.407 169.650, 166.507 118.313, 68.747 "
fill = "lightblue" stroke = "black"/>
</g>
<g>
<polygon points = "326.348, 77.195 326.738, 80.910 358.068, 104.763 450.037, 68.468 443.996, 0.000 344.445, 0.000 "
fill = "lightblue" stroke = "black"/>
</g>
</svg>
