<svg xmlns = "http://www.w3.org/2000/svg" width = "1000" height = "1000">
<g>
<polygon points = "593.485, 321.650 595.323, 315.213 579.782, 226.193 493.796, 203.076 512.748, 330.034 534.441, 345.568 "
fill = "lightblue" stroke = "black"/>
</g>
<g>
<polygon points = "141.631, 80.399 255.799, 200.520 282.173, 100.710 152.116, 43.231 "
fill = "lightblue" stroke = "black"/>
</g>
<g>
<polygon points = "11.545, 784.748 105.798, 864.420 213.356, 776.400 214.799, 769.677 181.823, 763.317 "
fill = "lightblue" stroke = "black"/>
</g>
<g>
<polygon points = "646.822, 948.610 658.350, 841.303 556.909, 810.839 571.622, 930.849 "
fill = "lightblue" stroke = "black"/>
</g>
<g>
<polygon points = "171.850, 305.912 157.755, 313.465 184.817, 339.783 342.584, 398.482 361.616, 348.002 333.749, 318.310 "
fill = "lightblue" stroke = "black"/>
</g>
<g>
<polygon points = "955.498, 700.193 895.160, 580.166 878.680, 576.481 825.579, 679.897 914.279, 722.470 "
fill = "lightblue" stroke = "black"/>
</g>
<g>
<polygon points = "701.821, 365.169 747.198, 404.461 757.393, 402.663 832.944, 304.506 820.189, 271.399 721.918, 298.180 720.441, 299.590 "
fill = "lightblue" stroke = "black"/>
</g>
<g>
<polygon points = "627.471, 193.521 565.058, 142.840 459.796, 140.243 438.834, 165.957 493.796, 203.076 579.782, 226.193 "
fill = "lightblue" stroke = "black"/>
</g>
<g>
<polygon points = "413.520, 169.372 350.420, 130.494 306.773, 270.532 324.426, 300.820 420.579, 208.880 "
fill = "lightblue" stroke = "black"/>
</g>
<g>
<polygon points = "927.736, 954.008 843.731, 874.492 818.683, 881.474 822.564, 1000.000 926.445, 1000.000 "
fill = "lightblue" stroke = "black"/>
</g>
<g>
<polygon points = "774.313, 34.299 853.160, 126.262 912.734, 0.000 779.610, 0.000 "
fill = "lightblue" stroke = "black"/>
</g>
<g>
<polygon points = "141.521, 34.329 152.116, 43.231 282.173, 100.710 303.567, 91.134 292.146, 53.569 266.835, 0.000 160.106, 0.000 "
fill = "lightblue" stroke = "black"/>
</g>
<g>
<polygon points = "394.469, 904.347 389.332, 867.923 373.647, 840.545 335.475, 835.201 324.923, 846.648 244.203, 979.635 245.206, 992.002 "
fill = "lightblue" stroke = "black"/>
</g>
<g>
<polygon points = "984.177, 804.465 927.736, 954.008 926.445, 1000.000 1000.000, 1000.000 1000.000, 796.836 "
fill = "lightblue" stroke = "black"/>
</g>
<g>
<polygon points = "533.343, 43.428 634.544, 101.885 677.485, 88.056 652.727, 0.000 549.046, 0.000 "
fill = "lightblue" stroke = "black"/>
</g>
<g>
<polygon points = "314.241, 724.273 296.565, 676.319 187.509, 688.972 148.436, 708.433 181.823, 763.317 214.799, 769.677 "
fill = "lightblue" stroke = "black"/>
</g>
<g>
<polygon points = "510.543, 949.852 483.945, 881.836 389.332, 867.923 394.469, 904.347 441.811, 1000.000 461.598, 1000.000 "
fill = "lightblue" stroke = "black"/>
</g>
<g>
<polygon points = "871.875, 433.977 899.518, 361.593 832.944, 304.506 757.393, 402.663 "
fill = "lightblue" stroke = "black"/>
</g>
<g>
<polygon points = "669.720, 821.750 682.335, 795.715 667.946, 746.035 645.821, 730.748 527.491, 780.930 556.909, 810.839 658.350, 841.303 "
fill = "lightblue" stroke = "black"/>
</g>
<g>
<polygon points = "721.768, 685.323 708.873, 653.821 662.135, 622.504 605.131, 602.415 604.518, 668.992 645.821, 730.748 667.946, 746.035 "
fill = "lightblue" stroke = "black"/>
</g>
<g>
<polygon points = "935.085, 336.280 924.890, 260.012 856.775, 217.692 820.189, 271.399 832.944, 304.506 899.518, 361.593 "
fill = "lightblue" stroke = "black"/>
</g>
<g>
<polygon points = "106.210, 182.088 214.513, 219.784 252.500, 213.997 255.799, 200.520 141.631, 80.399 "
fill = "lightblue" stroke = "black"/>
</g>
<g>
<polygon points = "335.475, 835.201 373.647, 840.545 440.616, 784.498 357.516, 704.096 317.193, 724.546 "
fill = "lightblue" stroke = "black"/>
</g>
<g>
<polygon points = "745.778, 926.256 786.769, 883.279 783.192, 797.702 682.335, 795.715 669.720, 821.750 "
fill = "lightblue" stroke = "black"/>
</g>
<g>
<polygon points = "186.075, 344.743 279.960, 467.696 348.066, 473.756 342.584, 398.482 184.817, 339.783 "
fill = "lightblue" stroke = "black"/>
</g>
<g>
<polygon points = "473.185, 573.000 433.380, 490.552 422.414, 482.304 374.623, 508.925 380.469, 652.112 "
fill = "lightblue" stroke = "black"/>
</g>
<g>
<polygon points = "104.291, 182.107 102.745, 186.601 109.389, 313.292 157.755, 313.465 171.850, 305.912 214.513, 219.784 106.210, 182.088 "
fill = "lightblue" stroke = "black"/>
</g>
<g>
<polygon points = "48.485, 333.772 109.389, 313.292 102.745, 186.601 0.000, 283.700 0.000, 331.040 "
fill = "lightblue" stroke = "black"/>
</g>
<g>
<polygon points = "292.146, 53.569 303.567, 91.134 350.420, 130.494 413.520, 169.372 438.834, 165.957 459.796, 140.243 457.124, 124.567 429.512, 87.040 "
fill = "lightblue" stroke = "black"/>
</g>
<g>
<polygon points = "420.579, 208.880 324.426, 300.820 333.749, 318.310 361.616, 348.002 407.856, 363.961 441.286, 306.986 "
fill = "lightblue" stroke = "black"/>
</g>
<g>
<polygon points = "104.327, 899.755 114.279, 892.327 105.798, 864.420 11.545, 784.748 0.000, 782.289 0.000, 927.142 "
fill = "lightblue" stroke = "black"/>
</g>
<g>
<polygon points = "731.144, 118.071 731.168, 121.430 780.301, 168.311 843.853, 171.593 862.118, 149.481 853.160, 126.262 774.313, 34.299 "
fill = "lightblue" stroke = "black"/>
</g>
<g>
<polygon points = "780.301, 168.311 731.168, 121.430 676.552, 184.229 695.865, 270.936 720.441, 299.590 721.918, 298.180 "
fill = "lightblue" stroke = "black"/>
</g>
<g>
<polygon points = "49.693, 574.448 42.899, 466.294 0.000, 399.248 0.000, 717.520 "
fill = "lightblue" stroke = "black"/>
</g>
<g>
<polygon points = "94.499, 628.856 115.577, 702.765 148.436, 708.433 187.509, 688.972 176.211, 584.852 129.351, 554.686 "
fill = "lightblue" stroke = "black"/>
</g>
<g>
<polygon points = "441.286, 306.986 407.856, 363.961 420.368, 388.622 555.746, 420.287 534.441, 345.568 512.748, 330.034 "
fill = "lightblue" stroke = "black"/>
</g>
<g>
<polygon points = "772.559, 507.632 757.779, 498.698 700.267, 484.392 662.135, 622.504 708.873, 653.821 "
fill = "lightblue" stroke = "black"/>
</g>
<g>
<polygon points = "894.915, 141.060 990.674, 192.585 1000.000, 190.581 1000.000, 6.658 "
fill = "lightblue" stroke = "black"/>
</g>
<g>
<polygon points = "483.945, 881.836 516.935, 776.263 505.410, 765.776 440.616, 784.498 373.647, 840.545 389.332, 867.923 "
fill = "lightblue" stroke = "black"/>
</g>
<g>
<polygon points = "676.552, 184.229 731.168, 121.430 731.144, 118.071 677.485, 88.056 634.544, 101.885 565.058, 142.840 627.471, 193.521 "
fill = "lightblue" stroke = "black"/>
</g>
<g>
<polygon points = "244.203, 979.635 324.923, 846.648 223.765, 825.611 206.040, 929.296 "
fill = "lightblue" stroke = "black"/>
</g>
<g>
<polygon points = "695.865, 270.936 676.552, 184.229 627.471, 193.521 579.782, 226.193 595.323, 315.213 "
fill = "lightblue" stroke = "black"/>
</g>
<g>
<polygon points = "117.176, 437.236 129.948, 440.743 186.075, 344.743 184.817, 339.783 157.755, 313.465 109.389, 313.292 48.485, 333.772 "
fill = "lightblue" stroke = "black"/>
</g>
<g>
<polygon points = "11.545, 784.748 181.823, 763.317 148.436, 708.433 115.577, 702.765 0.000, 735.107 0.000, 782.289 "
fill = "lightblue" stroke = "black"/>
</g>
<g>
<polygon points = "358.428, 703.380 380.469, 652.112 374.623, 508.925 372.380, 508.817 319.532, 612.343 300.292, 660.837 296.565, 676.319 314.241, 724.273 317.193, 724.546 357.516, 704.096 "
fill = "lightblue" stroke = "black"/>
</g>
<g>
<polygon points = "502.058, 699.188 485.431, 675.345 358.428, 703.380 357.516, 704.096 440.616, 784.498 505.410, 765.776 "
fill = "lightblue" stroke = "black"/>
</g>
<g>
<polygon points = "42.899, 466.294 101.316, 456.263 117.176, 437.236 48.485, 333.772 0.000, 331.040 0.000, 399.248 "
fill = "lightblue" stroke = "black"/>
</g>
<g>
<polygon points = "6.051, 99.666 104.291, 182.107 106.210, 182.088 141.631, 80.399 152.116, 43.231 141.521, 34.329 "
fill = "lightblue" stroke = "black"/>
</g>
<g>
<polygon points = "204.708, 551.546 205.111, 479.331 129.948, 440.743 117.176, 437.236 101.316, 456.263 129.351, 554.686 176.211, 584.852 "
fill = "lightblue" stroke = "black"/>
</g>
<g>
<polygon points = "841.680, 554.751 726.223, 685.480 773.723, 709.742 825.579, 679.897 878.680, 576.481 "
fill = "lightblue" stroke = "black"/>
</g>
<g>
<polygon points = "129.948, 440.743 205.111, 479.331 241.183, 478.043 279.960, 467.696 186.075, 344.743 "
fill = "lightblue" stroke = "black"/>
</g>
<g>
<polygon points = "438.834, 165.957 413.520, 169.372 420.579, 208.880 441.286, 306.986 512.748, 330.034 493.796, 203.076 "
fill = "lightblue" stroke = "black"/>
</g>
<g>
<polygon points = "571.622, 930.849 556.909, 810.839 527.491, 780.930 516.935, 776.263 483.945, 881.836 510.543, 949.852 "
fill = "lightblue" stroke = "black"/>
</g>
<g>
<polygon points = "933.631, 808.666 843.731, 874.492 927.736, 954.008 984.177, 804.465 "
fill = "lightblue" stroke = "black"/>
</g>
<g>
<polygon points = "429.512, 87.040 457.124, 124.567 533.343, 43.428 549.046, 0.000 421.807, 0.000 "
fill = "lightblue" stroke = "black"/>
</g>
<g>
<polygon points = "115.577, 702.765 94.499, 628.856 49.693, 574.448 0.000, 717.520 0.000, 735.107 "
fill = "lightblue" stroke = "black"/>
</g>
<g>
<polygon points = "292.146, 53.569 429.512, 87.040 421.807, 0.000 266.835, 0.000 "
fill = "lightblue" stroke = "black"/>
</g>
<g>
<polygon points = "636.219, 462.207 635.088, 460.125 581.322, 448.771 577.500, 452.013 508.932, 594.652 511.018, 598.367 597.342, 583.143 "
fill = "lightblue" stroke = "black"/>
</g>
<g>
<polygon points = "457.124, 124.567 459.796, 140.243 565.058, 142.840 634.544, 101.885 533.343, 43.428 "
fill = "lightblue" stroke = "black"/>
</g>
<g>
<polygon points = "677.485, 88.056 731.144, 118.071 774.313, 34.299 779.610, 0.000 652.727, 0.000 "
fill = "lightblue" stroke = "black"/>
</g>
<g>
<polygon points = "868.878, 779.857 914.279, 722.470 825.579, 679.897 773.723, 709.742 791.601, 791.238 "
fill = "lightblue" stroke = "black"/>
</g>
<g>
<polygon points = "555.746, 420.287 581.322, 448.771 635.088, 460.125 653.656, 413.568 593.485, 321.650 534.441, 345.568 "
fill = "lightblue" stroke = "black"/>
</g>
<g>
<polygon points = "420.368, 388.622 407.856, 363.961 361.616, 348.002 342.584, 398.482 348.066, 473.756 372.380, 508.817 374.623, 508.925 422.414, 482.304 "
fill = "lightblue" stroke = "black"/>
</g>
<g>
<polygon points = "422.414, 482.304 433.380, 490.552 577.500, 452.013 581.322, 448.771 555.746, 420.287 420.368, 388.622 "
fill = "lightblue" stroke = "black"/>
</g>
<g>
<polygon points = "502.058, 699.188 505.410, 765.776 516.935, 776.263 527.491, 780.930 645.821, 730.748 604.518, 668.992 "
fill = "lightblue" stroke = "black"/>
</g>
<g>
<polygon points = "726.223, 685.480 841.680, 554.751 805.501, 518.040 772.559, 507.632 708.873, 653.821 721.768, 685.323 "
fill = "lightblue" stroke = "black"/>
</g>
<g>
<polygon points = "990.674, 192.585 894.915, 141.060 862.118, 149.481 843.853, 171.593 856.775, 217.692 924.890, 260.012 "
fill = "lightblue" stroke = "black"/>
</g>
<g>
<polygon points = "990.674, 192.585 924.890, 260.012 935.085, 336.280 989.436, 384.089 1000.000, 384.093 1000.000, 190.581 "
fill = "lightblue" stroke = "black"/>
</g>
<g>
<polygon points = "875.908, 468.074 920.869, 483.995 989.436, 384.089 935.085, 336.280 899.518, 361.593 871.875, 433.977 "
fill = "lightblue" stroke = "black"/>
</g>
<g>
<polygon points = "508.932, 594.652 577.500, 452.013 433.380, 490.552 473.185, 573.000 "
fill = "lightblue" stroke = "black"/>
</g>
<g>
<polygon points = "695.865, 270.936 595.323, 315.213 593.485, 321.650 653.656, 413.568 701.821, 365.169 720.441, 299.590 "
fill = "lightblue" stroke = "black"/>
</g>
<g>
<polygon points = "783.192, 797.702 791.601, 791.238 773.723, 709.742 726.223, 685.480 721.768, 685.323 667.946, 746.035 682.335, 795.715 "
fill = "lightblue" stroke = "black"/>
</g>
<g>
<polygon points = "989.436, 384.089 920.869, 483.995 952.845, 564.590 1000.000, 582.848 1000.000, 384.093 "
fill = "lightblue" stroke = "black"/>
</g>
<g>
<polygon points = "0.000, 100.247 6.051, 99.666 141.521, 34.329 160.106, 0.000 0.000, 0.000 "
fill = "lightblue" stroke = "black"/>
</g>
<g>
<polygon points = "206.040, 929.296 223.765, 825.611 213.356, 776.400 105.798, 864.420 114.279, 892.327 "
fill = "lightblue" stroke = "black"/>
</g>
<g>
<polygon points = "952.845, 564.590 895.160, 580.166 955.498, 700.193 1000.000, 712.964 1000.000, 582.848 "
fill = "lightblue" stroke = "black"/>
</g>
<g>
<polygon points = "324.426, 300.820 306.773, 270.532 252.500, 213.997 214.513, 219.784 171.850, 305.912 333.749, 318.310 "
fill = "lightblue" stroke = "black"/>
</g>
<g>
<polygon points = "952.845, 564.590 920.869, 483.995 875.908, 468.074 805.501, 518.040 841.680, 554.751 878.680, 576.481 895.160, 580.166 "
fill = "lightblue" stroke = "black"/>
</g>
<g>
<polygon points = "104.327, 899.755 0.000, 927.142 0.000, 1000.000 123.686, 1000.000 "
fill = "lightblue" stroke = "black"/>
</g>
<g>
<polygon points = "653.656, 413.568 635.088, 460.125 636.219, 462.207 700.267, 484.392 757.779, 498.698 747.198, 404.461 701.821, 365.169 "
fill = "lightblue" stroke = "black"/>
</g>
<g>
<polygon points = "245.206, 992.002 244.203, 979.635 206.040, 929.296 114.279, 892.327 104.327, 899.755 123.686, 1000.000 245.152, 1000.000 "
fill = "lightblue" stroke = "black"/>
</g>
<g>
<polygon points = "597.342, 583.143 511.018, 598.367 485.431, 675.345 502.058, 699.188 604.518, 668.992 605.131, 602.415 "
fill = "lightblue" stroke = "black"/>
</g>
<g>
<polygon points = "853.160, 126.262 862.118, 149.481 894.915, 141.060 1000.000, 6.658 1000.000, 0.000 912.734, 0.000 "
fill = "lightblue" stroke = "black"/>
</g>
<g>
<polygon points = "745.778, 926.256 669.720, 821.750 658.350, 841.303 646.822, 948.610 670.060, 1000.000 688.486, 1000.000 "
fill = "lightblue" stroke = "black"/>
</g>
<g>
<polygon points = "102.745, 186.601 104.291, 182.107 6.051, 99.666 0.000, 100.247 0.000, 283.700 "
fill = "lightblue" stroke = "black"/>
</g>
<g>
<polygon points = "319.532, 612.343 372.380, 508.817 348.066, 473.756 279.960, 467.696 241.183, 478.043 "
fill = "lightblue" stroke = "black"/>
</g>
<g>
<polygon points = "856.775, 217.692 843.853, 171.593 780.301, 168.311 721.918, 298.180 820.189, 271.399 "
fill = "lightblue" stroke = "black"/>
</g>
<g>
<polygon points = "636.219, 462.207 597.342, 583.143 605.131, 602.415 662.135, 622.504 700.267, 484.392 "
fill = "lightblue" stroke = "black"/>
</g>
<g>
<polygon points = "300.292, 660.837 204.708, 551.546 176.211, 584.852 187.509, 688.972 296.565, 676.319 "
fill = "lightblue" stroke = "black"/>
</g>
<g>
<polygon points = "646.822, 948.610 571.622, 930.849 510.543, 949.852 461.598, 1000.000 670.060, 1000.000 "
fill = "lightblue" stroke = "black"/>
</g>
<g>
<polygon points = "511.018, 598.367 508.932, 594.652 473.185, 573.000 380.469, 652.112 358.428, 703.380 485.431, 675.345 "
fill = "lightblue" stroke = "black"/>
</g>
<g>
<polygon points = "933.631, 808.666 868.878, 779.857 791.601, 791.238 783.192, 797.702 786.769, 883.279 818.683, 881.474 843.731, 874.492 "
fill = "lightblue" stroke = "black"/>
</g>
<g>
<polygon points = "818.683, 881.474 786.769, 883.279 745.778, 926.256 688.486, 1000.000 822.564, 1000.000 "
fill = "lightblue" stroke = "black"/>
</g>
<g>
<polygon points = "955.498, 700.193 914.279, 722.470 868.878, 779.857 933.631, 808.666 984.177, 804.465 1000.000, 796.836 1000.000, 712.964 "
fill = "lightblue" stroke = "black"/>
</g>
<g>
<polygon points = "94.499, 628.856 129.351, 554.686 101.316, 456.263 42.899, 466.294 49.693, 574.448 "
fill = "lightblue" stroke = "black"/>
</g>
<g>
<polygon points = "394.469, 904.347 245.206, 992.002 245.152, 1000.000 441.811, 1000.000 "
fill = "lightblue" stroke = "black"/>
</g>
<g>
<polygon points = "875.908, 468.074 871.875, 433.977 757.393, 402.663 747.198, 404.461 757.779, 498.698 772.559, 507.632 805.501, 518.040 "
fill = "lightblue" stroke = "black"/>
</g>
<g>
<polygon points = "303.567, 91.134 282.173, 100.710 255.799, 200.520 252.500, 213.997 306.773, 270.532 350.420, 130.494 "
fill = "lightblue" stroke = "black"/>
</g>
<g>
<polygon points = "223.765, 825.611 324.923, 846.648 335.475, 835.201 317.193, 724.546 314.241, 724.273 214.799, 769.677 213.356, 776.400 "
fill = "lightblue" stroke = "black"/>
</g>
<g>
<polygon points = "300.292, 660.837 319.532, 612.343 241.183, 478.043 205.111, 479.331 204.708, 551.546 "
fill = "lightblue" stroke = "black"/>
</g>
</svg>
